<?xml version="1.0" encoding="UTF-8" standalone="no"?>
<svg
   xmlns:dc="http://purl.org/dc/elements/1.1/"
   xmlns:cc="http://creativecommons.org/ns#"
   xmlns:rdf="http://www.w3.org/1999/02/22-rdf-syntax-ns#"
   xmlns:svg="http://www.w3.org/2000/svg"
   xmlns="http://www.w3.org/2000/svg"
   xmlns:sodipodi="http://sodipodi.sourceforge.net/DTD/sodipodi-0.dtd"
   xmlns:inkscape="http://www.inkscape.org/namespaces/inkscape"
   version="1.1"
   id="svg2"
   xml:space="preserve"
   width="827.68402"
   height="212.65601"
   viewBox="0 0 827.68402 212.65601"
   sodipodi:docname="UKRI_STF_Council-Logo_Horiz-RGB_W_.ai"><metadata
     id="metadata8"><rdf:RDF><cc:Work
         rdf:about=""><dc:format>image/svg+xml</dc:format><dc:type
           rdf:resource="http://purl.org/dc/dcmitype/StillImage" /></cc:Work></rdf:RDF></metadata><defs
     id="defs6"><clipPath
       clipPathUnits="userSpaceOnUse"
       id="clipPath18"><path
         d="M 0,159.492 H 620.763 V 0 H 0 Z"
         id="path16" /></clipPath></defs><sodipodi:namedview
     pagecolor="#ffffff"
     bordercolor="#666666"
     borderopacity="1"
     objecttolerance="10"
     gridtolerance="10"
     guidetolerance="10"
     inkscape:pageopacity="0"
     inkscape:pageshadow="2"
     inkscape:window-width="640"
     inkscape:window-height="480"
     id="namedview4" /><g
     id="g10"
     inkscape:groupmode="layer"
     inkscape:label="UKRI_STF_Council-Logo_Horiz-RGB_W_"
     transform="matrix(1.3333333,0,0,-1.3333333,0,212.656)"><g
       id="g12"><g
         id="g14"
         clip-path="url(#clipPath18)"><g
           id="g20"
           transform="translate(324.3214,97.7843)"><path
             d="m 0,0 c -6.151,0 -10.414,4.021 -10.414,9.288 h 5.227 c 0.483,-3.498 3.378,-4.302 5.147,-4.302 1.367,0 4.101,0.482 4.101,3.096 0,2.372 -2.292,3.337 -4.583,4.221 -3.78,1.488 -9.127,3.298 -9.127,8.645 0,4.744 4.141,7.639 9.167,7.639 5.829,0 9.086,-3.9 9.086,-7.478 H 3.458 c -0.282,1.568 -2.01,2.573 -4.021,2.573 -1.93,0 -3.538,-0.965 -3.538,-2.734 0,-1.729 1.568,-2.412 4.302,-3.659 C 3.136,15.962 9.409,14.394 9.409,8.042 9.409,2.774 5.106,0 0,0"
             style="fill:#ffffff;fill-opacity:1;fill-rule:nonzero;stroke:none"
             id="path22" /></g><g
           id="g24"
           transform="translate(346.438,97.7843)"><path
             d="m 0,0 c -5.589,0 -10.172,4.302 -10.172,10.213 0,5.991 4.744,10.293 10.373,10.293 4.584,0 8.484,-2.855 9.61,-7.559 H 4.343 c -0.845,1.648 -2.332,2.694 -4.263,2.694 -2.814,0 -5.065,-2.252 -5.065,-5.388 0,-3.136 2.251,-5.388 5.065,-5.388 1.81,0 3.217,0.925 4.102,2.413 H 9.69 C 8.403,2.493 4.262,0 0,0"
             style="fill:#ffffff;fill-opacity:1;fill-rule:nonzero;stroke:none"
             id="path26" /></g><path
           d="m 365.378,97.985 h -5.146 v 20.104 h 5.146 z m -6.031,25.733 c 0,1.93 1.569,3.417 3.458,3.417 1.85,0 3.377,-1.487 3.377,-3.417 0,-1.809 -1.527,-3.378 -3.377,-3.378 -1.889,0 -3.458,1.569 -3.458,3.378"
           style="fill:#ffffff;fill-opacity:1;fill-rule:nonzero;stroke:none"
           id="path28" /><g
           id="g30"
           transform="translate(374.5074,110.5704)"><path
             d="M 0,0 H 9.046 C 8.443,2.372 6.795,3.337 4.784,3.337 2.573,3.337 0.804,2.09 0,0 M 14.354,-4.061 H -0.322 c 0.603,-3.056 3.095,-4.182 5.267,-4.182 2.734,0 3.9,1.689 3.9,1.689 h 5.066 c -1.527,-4.021 -5.186,-6.232 -9.127,-6.232 -5.428,0 -10.172,4.141 -10.172,10.413 0,6.233 4.704,10.093 10.011,10.093 5.147,0 10.374,-3.579 9.731,-11.781"
             style="fill:#ffffff;fill-opacity:1;fill-rule:nonzero;stroke:none"
             id="path32" /></g><g
           id="g34"
           transform="translate(411.6216,108.8815)"><path
             d="m 0,0 v -10.896 h -5.348 v 9.69 c 0,0.684 0.483,5.749 -3.378,5.951 -1.889,0.12 -5.266,-0.925 -5.266,-6.192 v -9.449 H -19.3 V 9.208 h 4.102 l 0.682,-2.453 h 0.684 c 0.845,1.005 2.734,2.654 6.112,2.654 C -2.533,9.409 0,5.549 0,0"
             style="fill:#ffffff;fill-opacity:1;fill-rule:nonzero;stroke:none"
             id="path36" /></g><g
           id="g38"
           transform="translate(425.2525,97.7843)"><path
             d="m 0,0 c -5.589,0 -10.172,4.302 -10.172,10.213 0,5.991 4.744,10.293 10.373,10.293 4.584,0 8.484,-2.855 9.61,-7.559 H 4.343 c -0.845,1.648 -2.332,2.694 -4.263,2.694 -2.814,0 -5.065,-2.252 -5.065,-5.388 0,-3.136 2.251,-5.388 5.065,-5.388 1.81,0 3.217,0.925 4.102,2.413 H 9.69 C 8.403,2.493 4.262,0 0,0"
             style="fill:#ffffff;fill-opacity:1;fill-rule:nonzero;stroke:none"
             id="path40" /></g><g
           id="g42"
           transform="translate(443.108,110.5704)"><path
             d="M 0,0 H 9.046 C 8.443,2.372 6.795,3.337 4.784,3.337 2.573,3.337 0.804,2.09 0,0 M 14.354,-4.061 H -0.322 c 0.603,-3.056 3.095,-4.182 5.267,-4.182 2.734,0 3.9,1.689 3.9,1.689 h 5.066 c -1.527,-4.021 -5.186,-6.232 -9.127,-6.232 -5.428,0 -10.172,4.141 -10.172,10.413 0,6.233 4.704,10.093 10.011,10.093 5.147,0 10.374,-3.579 9.731,-11.781"
             style="fill:#ffffff;fill-opacity:1;fill-rule:nonzero;stroke:none"
             id="path44" /></g><g
           id="g46"
           transform="translate(483.8013,106.4288)"><path
             d="M 0,0 V 0.402 C -3.658,0 -7.277,-0.442 -7.277,-2.533 -7.277,-5.589 -0.321,-5.348 0,0 m 7.318,-4.583 v -3.86 H 6.111 c -2.331,0 -3.98,0.844 -4.663,2.573 -1.207,-1.649 -3.217,-2.775 -6.353,-2.775 -4.543,0 -7.438,2.333 -7.438,5.951 0,6.273 8.564,6.836 12.424,7.036 C 0,6.674 -1.286,7.519 -3.337,7.519 -6.191,7.519 -6.393,5.79 -6.393,5.79 h -5.025 c 0.361,3.578 3.297,6.071 8.202,6.071 4.784,0 8.162,-2.372 8.162,-8.202 v -5.347 c 0,-2.333 0.844,-2.895 2.372,-2.895"
             style="fill:#ffffff;fill-opacity:1;fill-rule:nonzero;stroke:none"
             id="path48" /></g><g
           id="g50"
           transform="translate(513.397,108.8815)"><path
             d="m 0,0 v -10.896 h -5.348 v 9.69 c 0,0.684 0.483,5.749 -3.378,5.951 -1.889,0.12 -5.266,-0.925 -5.266,-6.192 v -9.449 H -19.3 V 9.208 h 4.102 l 0.682,-2.453 h 0.684 c 0.845,1.005 2.734,2.654 6.112,2.654 C -2.533,9.409 0,5.549 0,0"
             style="fill:#ffffff;fill-opacity:1;fill-rule:nonzero;stroke:none"
             id="path52" /></g><g
           id="g54"
           transform="translate(531.4107,108.0372)"><path
             d="m 0,0 c 0,3.337 -1.81,5.307 -4.423,5.307 -2.453,0 -4.905,-1.769 -4.905,-5.307 0,-3.538 2.452,-5.307 4.905,-5.307 C -1.81,-5.307 0,-3.337 0,0 m 5.025,18.495 v -28.547 h -3.94 l -0.563,1.93 h -0.603 c -1.246,-1.367 -2.935,-2.131 -5.106,-2.131 -5.106,0 -9.368,4.182 -9.368,10.253 0,6.071 4.262,10.253 9.368,10.253 2.091,0 3.9,-0.724 5.187,-2.171 v 10.413 z"
             style="fill:#ffffff;fill-opacity:1;fill-rule:nonzero;stroke:none"
             id="path56" /></g><g
           id="g58"
           transform="translate(333.2877,79.9518)"><path
             d="m 0,0 h -7.599 v -23.159 h -5.388 V 0 h -7.599 V 4.986 H 0 Z"
             style="fill:#ffffff;fill-opacity:1;fill-rule:nonzero;stroke:none"
             id="path60" /></g><g
           id="g62"
           transform="translate(337.0289,69.3775)"><path
             d="M 0,0 H 9.046 C 8.443,2.372 6.795,3.337 4.784,3.337 2.573,3.337 0.804,2.09 0,0 M 14.354,-4.062 H -0.322 c 0.603,-3.055 3.095,-4.18 5.267,-4.18 2.734,0 3.9,1.688 3.9,1.688 h 5.066 c -1.527,-4.02 -5.186,-6.232 -9.127,-6.232 -5.428,0 -10.172,4.141 -10.172,10.414 0,6.232 4.704,10.092 10.011,10.092 5.147,0 10.374,-3.579 9.731,-11.782"
             style="fill:#ffffff;fill-opacity:1;fill-rule:nonzero;stroke:none"
             id="path64" /></g><g
           id="g66"
           transform="translate(364.3726,56.5914)"><path
             d="m 0,0 c -5.589,0 -10.172,4.303 -10.172,10.213 0,5.991 4.744,10.293 10.373,10.293 4.584,0 8.484,-2.855 9.61,-7.56 H 4.343 c -0.845,1.649 -2.332,2.695 -4.263,2.695 -2.814,0 -5.065,-2.252 -5.065,-5.388 0,-3.136 2.251,-5.388 5.065,-5.388 1.81,0 3.217,0.925 4.102,2.412 H 9.689 C 8.403,2.493 4.262,0 0,0"
             style="fill:#ffffff;fill-opacity:1;fill-rule:nonzero;stroke:none"
             id="path68" /></g><g
           id="g70"
           transform="translate(396.6627,67.6891)"><path
             d="m 0,0 v -10.896 h -5.388 v 9.689 c 0,1.971 0.323,5.951 -3.297,5.951 -1.768,0 -5.186,-0.925 -5.186,-6.192 v -9.448 h -5.388 V 17.65 h 5.107 V 7.116 h 0.683 c 0.965,1.006 2.815,2.292 5.79,2.292 C -2.492,9.408 0,5.548 0,0"
             style="fill:#ffffff;fill-opacity:1;fill-rule:nonzero;stroke:none"
             id="path72" /></g><g
           id="g74"
           transform="translate(420.7095,67.6891)"><path
             d="m 0,0 v -10.896 h -5.348 v 9.689 c 0,0.684 0.483,5.75 -3.378,5.951 -1.889,0.121 -5.266,-0.925 -5.266,-6.192 v -9.448 H -19.3 V 9.207 h 4.102 l 0.682,-2.453 h 0.684 c 0.845,1.006 2.734,2.654 6.112,2.654 C -2.533,9.408 0,5.548 0,0"
             style="fill:#ffffff;fill-opacity:1;fill-rule:nonzero;stroke:none"
             id="path76" /></g><g
           id="g78"
           transform="translate(439.4478,66.8443)"><path
             d="m 0,0 c 0,3.136 -1.85,5.589 -4.905,5.589 -3.056,0 -5.107,-2.453 -5.107,-5.589 0,-3.136 2.051,-5.589 5.107,-5.589 C -1.85,-5.589 0,-3.136 0,0 m -15.278,-0.04 c 0,6.433 4.985,10.293 10.373,10.293 5.427,0 10.172,-3.9 10.172,-10.213 0,-6.393 -4.906,-10.293 -10.333,-10.293 -5.468,0 -10.212,3.9 -10.212,10.213"
             style="fill:#ffffff;fill-opacity:1;fill-rule:nonzero;stroke:none"
             id="path80" /></g><path
           d="m 453.402,56.793 h -5.227 V 85.34 h 5.227 z"
           style="fill:#ffffff;fill-opacity:1;fill-rule:nonzero;stroke:none"
           id="path82" /><g
           id="g84"
           transform="translate(472.1802,66.8443)"><path
             d="m 0,0 c 0,3.136 -1.85,5.589 -4.905,5.589 -3.056,0 -5.107,-2.453 -5.107,-5.589 0,-3.136 2.051,-5.589 5.107,-5.589 C -1.85,-5.589 0,-3.136 0,0 m -15.278,-0.04 c 0,6.433 4.985,10.293 10.373,10.293 5.427,0 10.172,-3.9 10.172,-10.213 0,-6.393 -4.906,-10.293 -10.333,-10.293 -5.468,0 -10.212,3.9 -10.212,10.213"
             style="fill:#ffffff;fill-opacity:1;fill-rule:nonzero;stroke:none"
             id="path86" /></g><g
           id="g88"
           transform="translate(485.2906,70.3424)"><path
             d="M 0,0 C 0,-1.528 1.086,-2.653 3.418,-2.653 5.71,-2.653 6.835,-1.528 6.835,0 6.835,1.488 5.71,2.533 3.418,2.533 1.126,2.533 0,1.528 0,0 m 7.6,-14.997 c 0,1.085 -0.885,1.93 -3.137,1.93 -1.126,0 -2.693,0 -3.859,0.04 l -1.368,-1.448 c -0.241,-1.004 0.764,-2.653 4.302,-2.653 2.614,0 4.062,0.844 4.062,2.131 m 4.945,-0.161 c -0.161,-4.543 -4.303,-6.634 -9.087,-6.634 -6.232,0 -9.811,3.578 -8.886,7.921 l 2.292,1.85 c -1.287,0.803 -2.131,2.049 -2.131,3.538 0,1.648 1.045,2.814 2.493,3.578 -1.367,1.246 -2.05,2.935 -2.05,4.824 0,3.86 2.974,6.876 8.041,6.876 1.769,0 3.337,-0.362 4.584,-1.005 2.171,1.005 3.417,2.613 3.417,2.613 l 2.493,-3.337 c 0,0 -1.367,-0.925 -3.217,-1.488 0.764,-1.045 1.166,-2.291 1.166,-3.618 0,-3.82 -3.498,-6.876 -8.564,-6.876 -1.045,0 -2.01,0.121 -2.855,0.362 -0.321,-0.201 -0.602,-0.522 -0.602,-1.005 0,-1.448 2.211,-1.207 3.578,-1.207 h 2.814 c 4.423,0 6.634,-3.014 6.514,-6.392"
             style="fill:#ffffff;fill-opacity:1;fill-rule:nonzero;stroke:none"
             id="path90" /></g><g
           id="g92"
           transform="translate(522.1627,76.8961)"><path
             d="m 0,0 -6.996,-20.867 c -1.126,-3.338 -2.453,-7.479 -8.524,-7.479 -3.619,0 -5.508,1.448 -6.112,2.211 l 2.533,3.579 c 0.202,-0.201 1.448,-1.247 3.137,-1.247 1.689,0 2.815,0.684 3.257,2.051 l 0.562,1.648 h -2.694 L -21.752,0 h 5.589 l 5.065,-14.636 h 0.805 L -5.388,0 Z"
             style="fill:#ffffff;fill-opacity:1;fill-rule:nonzero;stroke:none"
             id="path94" /></g><g
           id="g96"
           transform="translate(320.0997,38.6383)"><path
             d="m 0,0 v -6.271 h 10.735 v -4.946 H 0 V -23.038 H -5.388 V -6.271 5.106 h 18.536 l 0,-5.106 z"
             style="fill:#ffffff;fill-opacity:1;fill-rule:nonzero;stroke:none"
             id="path98" /></g><g
           id="g100"
           transform="translate(346.5982,24.0435)"><path
             d="M 0,0 V 0.402 C -3.658,0 -7.277,-0.442 -7.277,-2.533 -7.277,-5.589 -0.321,-5.348 0,0 m 7.318,-4.583 v -3.86 H 6.111 c -2.331,0 -3.98,0.844 -4.663,2.573 -1.207,-1.649 -3.217,-2.775 -6.353,-2.775 -4.543,0 -7.438,2.333 -7.438,5.952 0,6.271 8.564,6.835 12.424,7.036 C 0,6.675 -1.286,7.519 -3.337,7.519 -6.191,7.519 -6.393,5.79 -6.393,5.79 h -5.025 c 0.361,3.578 3.297,6.071 8.202,6.071 4.784,0 8.162,-2.372 8.162,-8.202 v -5.347 c 0,-2.333 0.844,-2.895 2.372,-2.895"
             style="fill:#ffffff;fill-opacity:1;fill-rule:nonzero;stroke:none"
             id="path102" /></g><g
           id="g104"
           transform="translate(365.8199,15.399)"><path
             d="m 0,0 c -5.589,0 -10.172,4.303 -10.172,10.213 0,5.99 4.744,10.293 10.373,10.293 4.584,0 8.484,-2.855 9.61,-7.56 H 4.343 c -0.845,1.65 -2.332,2.695 -4.263,2.695 -2.814,0 -5.065,-2.252 -5.065,-5.388 0,-3.136 2.251,-5.388 5.065,-5.388 1.81,0 3.217,0.925 4.102,2.412 H 9.689 C 8.403,2.493 4.262,0 0,0"
             style="fill:#ffffff;fill-opacity:1;fill-rule:nonzero;stroke:none"
             id="path106" /></g><path
           d="m 384.761,15.6 h -5.146 v 20.104 h 5.146 z m -6.031,25.733 c 0,1.929 1.568,3.418 3.458,3.418 1.85,0 3.377,-1.489 3.377,-3.418 0,-1.81 -1.527,-3.377 -3.377,-3.377 -1.89,0 -3.458,1.567 -3.458,3.377"
           style="fill:#ffffff;fill-opacity:1;fill-rule:nonzero;stroke:none"
           id="path108" /><path
           d="m 394.412,15.6 h -5.227 v 28.547 h 5.227 z"
           style="fill:#ffffff;fill-opacity:1;fill-rule:nonzero;stroke:none"
           id="path110" /><path
           d="m 404.303,15.6 h -5.146 v 20.104 h 5.146 z m -6.031,25.733 c 0,1.929 1.568,3.418 3.458,3.418 1.85,0 3.377,-1.489 3.377,-3.418 0,-1.81 -1.527,-3.377 -3.377,-3.377 -1.89,0 -3.458,1.567 -3.458,3.377"
           style="fill:#ffffff;fill-opacity:1;fill-rule:nonzero;stroke:none"
           id="path112" /><g
           id="g114"
           transform="translate(423.1617,17.0875)"><path
             d="m 0,0 c 0,0 -1.688,-1.688 -4.784,-1.688 -3.861,0 -7.197,2.613 -7.197,6.674 v 9.328 h -4.021 v 3.94 h 2.01 c 1.367,0 2.292,0.925 2.292,2.373 v 4.02 h 4.865 V 18.616 H -1.77 V 14.314 H -6.835 V 5.308 c 0,-1.368 1.126,-2.412 2.573,-2.412 1.206,0 2.332,0.683 2.332,0.683 z"
             style="fill:#ffffff;fill-opacity:1;fill-rule:nonzero;stroke:none"
             id="path116" /></g><path
           d="m 430.522,15.6 h -5.146 v 20.104 h 5.146 z m -6.031,25.733 c 0,1.929 1.568,3.418 3.458,3.418 1.849,0 3.377,-1.489 3.377,-3.418 0,-1.81 -1.528,-3.377 -3.377,-3.377 -1.89,0 -3.458,1.567 -3.458,3.377"
           style="fill:#ffffff;fill-opacity:1;fill-rule:nonzero;stroke:none"
           id="path118" /><g
           id="g120"
           transform="translate(439.65,28.1852)"><path
             d="M 0,0 H 9.046 C 8.443,2.372 6.795,3.337 4.784,3.337 2.573,3.337 0.804,2.091 0,0 M 14.354,-4.062 H -0.322 c 0.603,-3.055 3.095,-4.18 5.267,-4.18 2.734,0 3.9,1.688 3.9,1.688 h 5.066 c -1.527,-4.02 -5.186,-6.232 -9.127,-6.232 -5.428,0 -10.172,4.141 -10.172,10.414 0,6.231 4.704,10.092 10.011,10.092 5.147,0 10.374,-3.579 9.731,-11.782"
             style="fill:#ffffff;fill-opacity:1;fill-rule:nonzero;stroke:none"
             id="path122" /></g><g
           id="g124"
           transform="translate(464.983,31.6432)"><path
             d="m 0,0 c -1.688,0 -2.412,-0.845 -2.412,-1.689 0,-1.367 1.809,-1.769 3.016,-2.01 3.578,-0.765 7.197,-1.85 7.197,-6.112 0,-4.141 -3.418,-6.433 -7.56,-6.433 -4.623,0 -8.202,2.814 -8.443,7.076 h 4.945 c 0.121,-1.206 0.925,-2.773 3.378,-2.773 2.051,0 2.533,1.085 2.533,1.929 0,1.488 -1.407,1.93 -2.774,2.251 -2.372,0.524 -7.479,1.489 -7.479,6.072 0,3.94 3.78,5.951 7.68,5.951 4.503,0 7.479,-2.735 7.72,-6.112 H 2.855 C 2.694,-1.166 2.051,0 0,0"
             style="fill:#ffffff;fill-opacity:1;fill-rule:nonzero;stroke:none"
             id="path126" /></g><g
           id="g128"
           transform="translate(509.0533,24.0435)"><path
             d="m 0,0 c -1.608,-5.388 -6.111,-8.645 -11.539,-8.645 -7.358,0 -12.705,6.032 -12.705,14.274 0,8.242 5.307,14.273 12.665,14.273 5.388,0 9.971,-3.256 11.579,-8.644 h -6.071 c -1.045,2.252 -2.935,3.337 -5.428,3.337 -4.584,0 -7.197,-3.739 -7.197,-8.966 0,-5.227 2.654,-8.966 7.277,-8.966 2.493,0 4.303,1.085 5.348,3.337 z"
             style="fill:#ffffff;fill-opacity:1;fill-rule:nonzero;stroke:none"
             id="path130" /></g><g
           id="g132"
           transform="translate(526.5464,25.6519)"><path
             d="m 0,0 c 0,3.136 -1.85,5.589 -4.905,5.589 -3.056,0 -5.107,-2.453 -5.107,-5.589 0,-3.136 2.051,-5.589 5.107,-5.589 C -1.85,-5.589 0,-3.136 0,0 m -15.278,-0.04 c 0,6.433 4.985,10.293 10.373,10.293 5.427,0 10.172,-3.9 10.172,-10.213 0,-6.393 -4.906,-10.293 -10.333,-10.293 -5.468,0 -10.212,3.9 -10.212,10.213"
             style="fill:#ffffff;fill-opacity:1;fill-rule:nonzero;stroke:none"
             id="path134" /></g><g
           id="g136"
           transform="translate(554.4927,35.7037)"><path
             d="m 0,0 v -20.104 h -4.021 l -0.723,2.252 h -0.523 c -0.804,-1.005 -2.573,-2.453 -5.87,-2.453 -5.347,0 -8.082,3.78 -8.082,9.409 V 0 h 5.468 v -9.689 c 0,-2.494 0.201,-5.952 3.659,-5.952 1.77,0 4.664,0.925 4.664,6.193 l 0,9.448 z"
             style="fill:#ffffff;fill-opacity:1;fill-rule:nonzero;stroke:none"
             id="path138" /></g><g
           id="g140"
           transform="translate(578.5396,26.4967)"><path
             d="m 0,0 v -10.896 h -5.348 v 9.689 c 0,0.684 0.483,5.75 -3.378,5.951 -1.889,0.12 -5.266,-0.925 -5.266,-6.192 v -9.448 H -19.3 V 9.207 h 4.102 l 0.682,-2.453 h 0.684 c 0.845,1.006 2.734,2.654 6.112,2.654 C -2.533,9.408 0,5.548 0,0"
             style="fill:#ffffff;fill-opacity:1;fill-rule:nonzero;stroke:none"
             id="path142" /></g><g
           id="g144"
           transform="translate(592.1714,15.399)"><path
             d="m 0,0 c -5.589,0 -10.172,4.303 -10.172,10.213 0,5.99 4.744,10.293 10.373,10.293 4.584,0 8.484,-2.855 9.61,-7.56 H 4.343 c -0.845,1.65 -2.332,2.695 -4.263,2.695 -2.814,0 -5.065,-2.252 -5.065,-5.388 0,-3.136 2.251,-5.388 5.065,-5.388 1.81,0 3.217,0.925 4.102,2.412 H 9.689 C 8.403,2.493 4.262,0 0,0"
             style="fill:#ffffff;fill-opacity:1;fill-rule:nonzero;stroke:none"
             id="path146" /></g><path
           d="m 611.113,15.6 h -5.146 v 20.104 h 5.146 z m -6.031,25.733 c 0,1.929 1.568,3.418 3.458,3.418 1.849,0 3.377,-1.489 3.377,-3.418 0,-1.81 -1.528,-3.377 -3.377,-3.377 -1.89,0 -3.458,1.567 -3.458,3.377"
           style="fill:#ffffff;fill-opacity:1;fill-rule:nonzero;stroke:none"
           id="path148" /><path
           d="m 620.763,15.6 h -5.227 v 28.547 h 5.227 z"
           style="fill:#ffffff;fill-opacity:1;fill-rule:nonzero;stroke:none"
           id="path150" /><path
           d="M 141.732,0 H 0 v 141.732 h 141.732 z"
           style="fill:#2e2d62;fill-opacity:1;fill-rule:nonzero;stroke:none"
           id="path152" /><g
           id="g154"
           transform="translate(109.6084,70.8663)"><path
             d="m 0,0 h -22.216 v 23.724 z m -19.371,-44.105 h -19.371 v -7.745 l -13.635,17.869 c 10.381,1.911 15.742,7.279 15.742,16.627 0,2.307 -0.329,4.365 -0.977,6.19 h 18.241 z m -58.114,32.941 h 15.121 c 6.216,0 8.735,-2.409 8.735,-6.19 0,-3.782 -2.519,-6.269 -8.735,-6.269 h -15.121 z m 38.743,28.072 V -8.733 c -3.519,5.941 -11.612,8.701 -23.622,8.731 10.717,1.088 20.625,6.871 23.622,16.91 m 55.268,38.36 H 0 L -22.216,31.61 V 55.268 H -54.32 V 23.862 c 0,-6.724 -4.978,-10.627 -11.582,-10.627 -6.604,0 -11.583,3.903 -11.583,10.627 V 55.268 H -94.011 V 23.622 C -94.011,9.449 -82.568,1.318 -69.66,0 h -24.351 v -55.268 h 16.526 v 20.482 h 7.219 l 15.271,-20.482 h 71.521 v 11.163 H -2.845 v 32.941 H 16.526 V 3.417 L -7.162,27.672 16.526,51.85 Z"
             style="fill:#ffffff;fill-opacity:1;fill-rule:nonzero;stroke:none"
             id="path156" /></g><g
           id="g158"
           transform="translate(155.2115,141.7086)"><path
             d="m 0,0 88.279,-116.009 v 58.238 h 39.957 V 0 Z"
             style="fill:#003088;fill-opacity:1;fill-rule:nonzero;stroke:none"
             id="path160" /></g><g
           id="g162"
           transform="translate(243.4908,83.9371)"><path
             d="M 0,0 V -58.237 L -88.279,57.771 -101.758,75.555 V 57.771 -83.938 H 39.957 l 0,83.938 z"
             style="fill:#1e5df8;fill-opacity:1;fill-rule:nonzero;stroke:none"
             id="path164" /></g></g></g></g></svg>
